<svg id="Layer_1" enable-background="new 0 0 510 510" height="512" viewBox="0 0 510 510" width="512" xmlns="http://www.w3.org/2000/svg"><g id="XMLID_2126_"><path id="XMLID_2127_" d="m510 105h-30v60h-30v-60h-30v90h30v75h-15v30h45v-105h30z"/><path id="XMLID_2128_" d="m405 225h-75v-30h-150v30h-75v135h300c0-40.441 0-90.361 0-135zm-60 90h-165v-30h165z"/><path id="XMLID_2131_" d="m80.508 420h114.492v-30h-118.242z"/><path id="XMLID_2132_" d="m91.758 510h103.242v-60h-110.742z"/><path id="XMLID_2133_" d="m330 510h103.242l7.5-60h-110.742z"/><path id="XMLID_2134_" d="m330 420h114.492l3.75-30h-118.242z"/><path id="XMLID_2135_" d="m60 195h30v-90h-30v60h-30v-60h-30v90h30v105h45v-30h-15z"/><path id="XMLID_2136_" d="m390 165c0-10.847 0-116.791 0-135h30v-30c-7.26 0-52.693 0-60 0v65.252c-24.77-30.628-62.633-50.252-105-50.252-74.439 0-135 60.561-135 135v15zm-165-30h-30v-30h30zm90 0h-30v-30h30z"/></g></svg>